<svg xmlns="http://www.w3.org/2000/svg" viewBox="0 0 640 190" role="img" aria-label="SQUAD MEDIA"><g transform="translate(0 0) scale(.85)"><path fill="#fff" d="M31 12h91q17 0 17 17v18H71q-10 0-10 10v44q0 10 10 10h12q8 0 12 7l7 10q7 10-4 15l-44 40v-32H31q-19 0-19-19V31q0-19 19-19Z"/><path fill="#c9ff16" d="M117 50h73q23 0 23 23v93q0 23-23 23h-6v31l-37-31h-29q-17 0-17-16t17-16h27q10 0 10-10v-43q0-10-10-10h-17q-8 0-12-7l-4-6h5q-16 0-16-16t16-15Z"/></g><g transform="translate(192 35) scale(.91)"><g fill="#fff" transform="translate(12 8) skewX(-7)">
<path d="M21 0h62L71 17H28q-7 0-7 6t7 6h30q23 0 23 21T58 72H0l12-17h44q7 0 7-6t-7-6H26Q3 43 3 22T21 0Z"/>
<path fill-rule="evenodd" transform="translate(92)" d="M24 0h34q24 0 24 23v26q0 10-7 16l13 15H63l-8-8H24Q0 72 0 49V23Q0 0 24 0Zm1 18q-6 0-6 7v22q0 7 6 7h13l-9-11h24l9 10q1-2 1-6V25q0-7-6-7Z"/>
<path transform="translate(188)" d="M0 0h19v47q0 7 7 7h28q7 0 7-7V0h19v49q0 23-24 23H24Q0 72 0 49Z"/>
<path fill-rule="evenodd" transform="translate(278)" d="M31 0h25l35 72H69l-6-14H25l-7 14H-4Zm12 20L32 42h22Z"/>
<path fill-rule="evenodd" transform="translate(378)" d="M0 0h47q34 0 34 36T47 72H0V29h19v25h27q16 0 16-18T46 18H0Z"/>
</g><text x="244" y="121" fill="#c9ff16" text-anchor="middle" font-family="Arial,sans-serif" font-weight="600" font-size="22" letter-spacing="19">MEDIA</text></g></svg>